<svg xmlns="http://www.w3.org/2000/svg" version="1.1" xmlns:xlink="http://www.w3.org/1999/xlink" xmlns:svgjs="http://svgjs.dev/svgjs" width="2000" height="1500" viewBox="0 0 2000 1500"><rect width="2000" height="1500" fill="#ffffff"></rect><g transform="matrix(0.75,0,0,0.75,249.14550048458136,585.5035408408274)"><svg viewBox="0 0 396 86" data-background-color="#2979ff" preserveAspectRatio="xMidYMid meet" height="434" width="2000" xmlns="http://www.w3.org/2000/svg" xmlns:xlink="http://www.w3.org/1999/xlink"><g id="tight-bounds" transform="matrix(1,0,0,1,0.2400000000000091,0.46143006970456213)"><svg viewBox="0 0 395.52 85.07713986059088" height="85.07713986059088" width="395.52"><g><svg viewBox="0 0 533.8297894629927 114.82785108184875" height="85.07713986059088" width="395.52"><g transform="matrix(1,0,0,1,138.30978946299268,22.603682934230562)"><svg viewBox="0 0 395.52 69.62048521338762" height="69.62048521338762" width="395.52"><g id="textblocktransform"><svg viewBox="0 0 395.52 69.62048521338762" height="69.62048521338762" width="395.52" id="textblock"><g><svg viewBox="0 0 395.52 69.62048521338762" height="69.62048521338762" width="395.52"><g transform="matrix(1,0,0,1,0,0)"><svg width="395.52" viewBox="4 -38.7 282.32 49.7" height="69.62048521338762" data-palette-color="#ffffff"><g class="wordmark-text-0" data-fill-palette-color="primary" id="text-0"><path d="M4-34.5L14.85-34.5Q19.65-34.5 22.45-32.33 25.25-30.15 25.25-26.5L25.25-26.5Q25.25-20.65 20.45-18.35L20.45-18.35Q26.95-16.1 26.95-10.05L26.95-10.05Q26.95-5.5 23.05-2.48 19.15 0.55 13.25 0.55L13.25 0.55Q10.15 0.55 4 0L4 0 4.6-12.15 4-34.5ZM14.2-14.85L14.2-14.85 10.15-14.85 10.1-13 10.45-4.85Q13.35-4.6 14.9-4.6L14.9-4.6Q17.55-4.6 19.03-5.93 20.5-7.25 20.5-9.8 20.5-12.35 19-13.6 17.5-14.85 14.2-14.85ZM13.05-29.45L13.05-29.45 10.6-29.45 10.3-19.7 13.55-19.7Q16.1-19.7 17.45-21.08 18.8-22.45 18.8-25L18.8-25Q18.8-29.45 13.05-29.45ZM37.9 0L37.9 0Q35.2 0 33.52-1.78 31.85-3.55 31.85-6.45L31.85-6.45 32.15-12.2 31.6-24.2 38.3-25.45 37.65-10.25Q37.65-8.1 38.42-7.1 39.2-6.1 40.9-6.1 42.6-6.1 45.6-7.8L45.6-7.8 45.6-10.8 45.05-23.95 51.8-25.2 51.2-12.7 51.25-8.6Q51.25-5.4 52.9-2.15L52.9-2.15 47.7 0.15Q46.05-3.1 45.7-5.05L45.7-5.05Q41.2 0 37.9 0ZM70.59-4.9L70.59-4.9Q66.7 0 63.85 0L63.85 0Q60.3 0 58.02-2.9 55.75-5.8 55.75-10.35L55.75-10.35Q55.75-16.6 59.22-20.9 62.7-25.2 67.75-25.2L67.75-25.2 70.55-24.8 70.55-25.75 69.95-37.45 76.8-38.7 76.15-13 76.15-8.6Q76.15-5.6 77.65-1.7L77.65-1.7 72.25 0.55Q70.8-2.45 70.59-4.9ZM61.35-12.95Q61.35-9.75 62.52-7.95 63.7-6.15 65.92-6.15 68.15-6.15 70.55-7.95L70.55-7.95 70.55-18.75Q67.55-19.35 66.09-19.35L66.09-19.35Q63.85-19.35 62.6-17.75 61.35-16.15 61.35-12.95ZM80.74 4.95L80.74 4.95Q80.74 0.55 88.94-1.95L88.94-1.95Q86.99-2.95 86.99-4.55L86.99-4.55Q86.99-5.2 87.49-5.85 87.99-6.5 88.94-7.2L88.94-7.2 88.94-7.6Q85.34-7.6 83.22-9.6 81.09-11.6 81.09-14.95L81.09-14.95Q81.09-19.3 84.64-22.53 88.19-25.75 93.04-25.75L93.04-25.75Q94.29-25.75 96.69-25.25 99.09-24.75 101.39-24.75L101.39-24.75 105.24-24.75 104.74-20.4 100.99-20.85Q101.49-19.4 101.49-17.55 101.49-15.7 100.62-13.88 99.74-12.05 98.52-10.95 97.29-9.85 96.07-9.03 94.84-8.2 93.97-7.58 93.09-6.95 93.09-6.45L93.09-6.45Q93.09-5.5 95.09-4.8L95.09-4.8Q100.39-2.65 102.27-1.15 104.14 0.35 104.14 2.55L104.14 2.55Q104.14 6.25 100.42 8.63 96.69 11 91.54 11 86.39 11 83.57 9.35 80.74 7.7 80.74 4.95ZM95.84-16.05L95.84-16.05Q95.84-18.5 94.74-19.65 93.64-20.8 91.29-20.8L91.29-20.8Q86.74-20.8 86.74-16.32 86.74-11.85 91.59-11.85L91.59-11.85Q95.84-11.85 95.84-16.05ZM97.64 3.3L97.64 3.3Q97.64 2.4 96.69 1.63 95.74 0.85 93.29-0.2L93.29-0.2Q89.64 0.8 88.27 1.65 86.89 2.5 86.89 3.75 86.89 5 88.27 5.78 89.64 6.55 92.09 6.55 94.54 6.55 96.09 5.65 97.64 4.75 97.64 3.3ZM116.89-5.1L116.89-5.1Q118.34-5.1 119.94-5.85 121.54-6.6 122.44-7.35L122.44-7.35 123.34-8.1 125.64-5.3Q125.14-4.45 124.09-3.35 123.04-2.25 121.97-1.48 120.89-0.7 119.12-0.08 117.34 0.55 115.44 0.55L115.44 0.55Q111.39 0.55 108.84-2.53 106.29-5.6 106.29-10.45L106.29-10.45Q106.29-16.55 109.84-21.15 113.39-25.75 118.14-25.75L118.14-25.75Q121.79-25.75 123.82-23.7 125.84-21.65 125.84-17.95L125.84-17.95Q125.84-15.75 125.09-12.95L125.09-12.95 124.09-11.9 111.59-10.75Q112.44-5.1 116.89-5.1ZM116.89-20.6L116.89-20.6Q114.69-20.6 113.19-18.82 111.69-17.05 111.44-14.3L111.44-14.3 119.94-15.35Q120.09-16.5 120.09-17.25L120.09-17.25Q120.09-20.6 116.89-20.6ZM129.24-24.2L132.14-24.2 132.14-29.65 138.89-30.95 138.24-24.2 144.29-24.2 143.74-20.1 138.04-20.1 137.79-9.65Q137.79-7.3 138.24-6.53 138.69-5.75 139.89-5.75 141.09-5.75 143.09-6.3L143.09-6.3 143.39-2.75Q140.09 0 137.59 0 135.09 0 133.49-1.83 131.89-3.65 131.89-6.6L131.89-6.6 132.19-12.2 132.14-20.1 128.69-20.1 129.24-24.2ZM157.89-11.8L146.09-9.7 145.69-14.25 157.49-16.35 157.89-11.8ZM162.53-34.5L173.38-34.5Q178.18-34.5 180.98-32.33 183.78-30.15 183.78-26.5L183.78-26.5Q183.78-20.65 178.98-18.35L178.98-18.35Q185.48-16.1 185.48-10.05L185.48-10.05Q185.48-5.5 181.58-2.48 177.68 0.55 171.78 0.55L171.78 0.55Q168.68 0.55 162.53 0L162.53 0 163.13-12.15 162.53-34.5ZM172.73-14.85L172.73-14.85 168.68-14.85 168.63-13 168.98-4.85Q171.88-4.6 173.43-4.6L173.43-4.6Q176.08-4.6 177.56-5.93 179.03-7.25 179.03-9.8 179.03-12.35 177.53-13.6 176.03-14.85 172.73-14.85ZM171.58-29.45L171.58-29.45 169.13-29.45 168.83-19.7 172.08-19.7Q174.63-19.7 175.98-21.08 177.33-22.45 177.33-25L177.33-25Q177.33-29.45 171.58-29.45ZM196.43 0L196.43 0Q193.73 0 192.06-1.78 190.38-3.55 190.38-6.45L190.38-6.45 190.68-12.2 190.13-24.2 196.83-25.45 196.18-10.25Q196.18-8.1 196.96-7.1 197.73-6.1 199.43-6.1 201.13-6.1 204.13-7.8L204.13-7.8 204.13-10.8 203.58-23.95 210.33-25.2 209.73-12.7 209.78-8.6Q209.78-5.4 211.43-2.15L211.43-2.15 206.23 0.15Q204.58-3.1 204.23-5.05L204.23-5.05Q199.73 0 196.43 0ZM229.13-4.9L229.13-4.9Q225.23 0 222.38 0L222.38 0Q218.83 0 216.55-2.9 214.28-5.8 214.28-10.35L214.28-10.35Q214.28-16.6 217.75-20.9 221.23-25.2 226.28-25.2L226.28-25.2 229.08-24.8 229.08-25.75 228.48-37.45 235.33-38.7 234.68-13 234.68-8.6Q234.68-5.6 236.18-1.7L236.18-1.7 230.78 0.55Q229.33-2.45 229.13-4.9ZM219.88-12.95Q219.88-9.75 221.05-7.95 222.23-6.15 224.45-6.15 226.68-6.15 229.08-7.95L229.08-7.95 229.08-18.75Q226.08-19.35 224.63-19.35L224.63-19.35Q222.38-19.35 221.13-17.75 219.88-16.15 219.88-12.95ZM254.23-4.9L254.23-4.9Q250.33 0 247.48 0L247.48 0Q243.93 0 241.65-2.9 239.38-5.8 239.38-10.35L239.38-10.35Q239.38-16.6 242.85-20.9 246.33-25.2 251.38-25.2L251.38-25.2 254.18-24.8 254.18-25.75 253.58-37.45 260.43-38.7 259.78-13 259.78-8.6Q259.78-5.6 261.28-1.7L261.28-1.7 255.88 0.55Q254.43-2.45 254.23-4.9ZM244.98-12.95Q244.98-9.75 246.15-7.95 247.33-6.15 249.55-6.15 251.78-6.15 254.18-7.95L254.18-7.95 254.18-18.75Q251.18-19.35 249.73-19.35L249.73-19.35Q247.48-19.35 246.23-17.75 244.98-16.15 244.98-12.95ZM273.27 11L266.82 9.65 271.97-1.9 268.27-12 263.22-24.15 269.87-25.4 273.07-14.75 274.72-9.7 275.37-9.7 276.57-13.35 280.17-25.45 286.32-24.7 277.47-1.45 273.27 11Z" fill="#000000" data-fill-palette-color="primary"></path></g></svg></g></svg></g></svg></g></svg></g><g><svg viewBox="0 0 121.87406379575698 114.82785108184875" height="114.82785108184875" width="121.87406379575698"><g><svg xmlns="http://www.w3.org/2000/svg" data-name="Layer 1" viewBox="0.8871319791548794 3.7213195738175937 98.22777032058067 92.5486804261824" x="0" y="0" height="114.82785108184875" width="121.87406379575698" class="icon-icon-0" data-fill-palette-color="accent" id="icon-0"><path d="M97.75 68.68A4.61 4.61 0 0 0 92 67.93C84.69 72.41 70.3 81 70.3 81A12 12 0 0 1 64.35 82.74L48 82.86A1.09 1.09 0 0 1 47.91 80.69L64.64 80.39A3.92 3.92 0 0 0 64.76 72.56L54.86 71.83A49.3 49.3 0 0 1 42.7 69.31C30.12 64.66 22.7 67.05 18.7 68.31A4.67 4.67 0 0 0 14.54 66.16L5.89 66.55A5.09 5.09 0 0 0 0.89 71.81L1.89 91.01A5.15 5.15 0 0 0 7.35 95.8L16 95.4A4.61 4.61 0 0 0 19.84 93 3.36 3.36 0 0 0 22.04 93.83H22.19L58.91 96.27H60.32A23.65 23.65 0 0 0 73.83 92L97.17 75.6A4.53 4.53 0 0 0 97.85 68.74ZM10.57 91.32A2.84 2.84 0 1 1 13.57 88.55 2.89 2.89 0 0 1 10.57 91.32M70.26 73L83.82 66A4.32 4.32 0 0 1 88.82 66.6C82.82 70.29 75.82 74.52 71.21 77.36A6.6 6.6 0 0 0 70.26 73M63.26 69.69L76.05 64.69A4.27 4.27 0 0 1 80.22 65.06L68.31 71A6.6 6.6 0 0 0 64.94 69.85ZM42.91 6.87A2.15 2.15 0 0 1 45.39 3.8 71.3 71.3 0 0 0 57.54 6.16 2.15 2.15 0 0 1 58.89 9.75L57.18 12.64H45.4ZM42 64.26H60.73A14.46 14.46 0 0 0 73.1 42.26L59.91 20.53A2.15 2.15 0 0 0 59.76 16.24H42.35A2.15 2.15 0 0 0 42.35 20.55H42.8L29.62 42.3A14.46 14.46 0 0 0 42 64.26M49.68 32.75V31.23A1.62 1.62 0 1 1 52.91 31.23V32.52A14 14 0 0 1 55.91 32.95 1.91 1.91 0 0 1 55.42 36.7 2 2 0 0 1 54.89 36.62 10.1 10.1 0 0 0 52 36.22C49.86 36.22 49.16 37.14 49.16 38.07 49.16 39.16 50.31 39.85 53.16 40.91 57.09 42.3 58.67 44.11 58.67 47.08S56.59 52.52 52.8 53.18V54.93A1.62 1.62 0 1 1 49.57 54.93V53.41A15.2 15.2 0 0 1 45.63 52.71 1.91 1.91 0 0 1 44.36 50.42V50.26A1.86 1.86 0 0 1 46.18 48.86 2 2 0 0 1 46.81 48.97 11.1 11.1 0 0 0 50.38 49.58C52.26 49.58 53.55 48.85 53.55 47.58S52.49 45.58 50.05 44.71C46.52 43.52 44.11 41.87 44.11 38.71 44.1 35.72 46.15 33.44 49.68 32.75" fill="#000000" data-fill-palette-color="accent"></path></svg></g></svg></g></svg></g><defs></defs></svg><rect width="395.52" height="85.07713986059088" fill="none" stroke="none" visibility="hidden"></rect></g></svg></g></svg>